<svg xmlns="http://www.w3.org/2000/svg" width="112" height="44" viewBox="0 0 112 44" role="img" aria-labelledby="title"><title id="title">Git</title><rect x=".5" y=".5" width="111" height="43" rx="9" fill="#101724" stroke="#303b51"/><g transform="translate(12 10)" color="#F05032"><path fill="currentColor" d="M13.09 23.549a1.54 1.54 0 0 1-2.18 0L.451 13.089a1.54 1.54 0 0 1 0-2.179l7.191-7.19 2.733 2.733a1.85 1.85 0 0 0 .964 2.326v6.66a1.849 1.849 0 1 0 1.54 0V8.957l2.508 2.508a1.85 1.85 0 1 0 1.09-1.09l-2.634-2.634a1.85 1.85 0 0 0-2.378-2.377L8.73 2.63 10.91.451a1.54 1.54 0 0 1 2.179 0l10.459 10.46a1.54 1.54 0 0 1 0 2.179z"/></g><text x="46" y="27" fill="#e6edf3" font-family="system-ui, -apple-system, sans-serif" font-size="14" font-weight="600">Git</text></svg>