<svg xmlns="http://www.w3.org/2000/svg" width="960" height="320" viewBox="0 0 960 320" role="img" aria-labelledby="title desc">
  <title id="title">Pablo Suárez · Product Engineer</title>
  <desc id="desc">Producto digital y agentes de IA. Oviedo, Asturias.</desc>
  <g font-family="system-ui, -apple-system, BlinkMacSystemFont, 'Segoe UI', sans-serif">
  <defs><linearGradient id="bg" x2="1" y2="1"><stop stop-color="#141c30"/><stop offset="1" stop-color="#0c111c"/></linearGradient></defs>
  <rect x="1" y="1" width="958" height="318" rx="20" fill="url(#bg)" stroke="#303b51"/>
  <path d="M704 0V320M768 0V320M832 0V320M896 0V320M640 64H960M640 128H960M640 192H960M640 256H960" stroke="#263149" opacity=".5"/>
  <rect x="48" y="48" width="32" height="4" rx="2" fill="#b4a0ff"/>
  <text x="48" y="94" fill="#b4a0ff" font-size="17" font-weight="600" letter-spacing="3">PRODUCT ENGINEER</text>
  <text x="44" y="163" fill="#f4f5fa" font-size="62" font-weight="750" letter-spacing="-2">Pablo Suárez</text>
  <text x="48" y="208" fill="#d0d6e3" font-size="25">Producto digital y agentes de IA.</text>
  <text x="48" y="273" fill="#a5b0c5" font-size="18">Oviedo, Asturias · Ahora: Siarem</text>
  <g fill="none" stroke="#b4a0ff" stroke-width="2"><rect x="734" y="102" width="112" height="112" rx="24" transform="rotate(-12 790 158)"/><rect x="764" y="126" width="112" height="112" rx="24" fill="#151d30"/></g>
  <path d="m798 163-14 15 14 15m43-30 14 15-14 15m-13-36-12 42" fill="none" stroke="#d4caff" stroke-width="3" stroke-linecap="round" stroke-linejoin="round"/>
</g>
</svg>
